<svg width="30" height="30" viewBox="0 0 30 30" fill="none" xmlns="http://www.w3.org/2000/svg">
<path fill-rule="evenodd" clip-rule="evenodd" d="M21.8942 11.2521C21.776 11.2375 21.6817 11.1452 21.6652 11.0273C21.2971 8.3929 19.1542 5.10254 15.0015 5.10254C10.5371 5.10254 8.70142 8.7395 8.34546 11.0307C8.3274 11.147 8.23358 11.2373 8.11677 11.2516C5.16793 11.6128 3.17151 13.8726 3.17151 16.98C3.17151 19.245 4.50651 21.3125 6.59526 22.2575C7.59901 22.6638 8.47026 22.725 8.90026 22.725H11.4285C11.6766 22.725 11.8778 22.5239 11.8778 22.2758C11.8778 22.0084 11.6448 21.803 11.3777 21.7905C10.6323 21.7559 9.89802 21.4614 9.32901 20.8913C8.10776 19.6713 8.10776 17.6925 9.32901 16.4725L12.7902 13.0113C12.9365 12.865 13.0965 12.7338 13.269 12.6188C13.3452 12.5688 13.4265 12.5338 13.5052 12.49C13.6052 12.4363 13.7015 12.3763 13.8065 12.3325C13.9065 12.2913 14.0115 12.2675 14.114 12.2363C14.2065 12.2088 14.2952 12.1738 14.3902 12.155C14.5815 12.1163 14.774 12.0988 14.9677 12.0963C14.979 12.0963 14.9902 12.0925 15.0015 12.0925C15.0115 12.0925 15.0202 12.095 15.029 12.0963C15.2252 12.0975 15.4202 12.1163 15.6127 12.155C15.7065 12.1738 15.7927 12.2075 15.884 12.235C15.989 12.2663 16.0952 12.29 16.1965 12.3325C16.2977 12.375 16.3902 12.4313 16.4852 12.4838C16.569 12.5288 16.6552 12.5663 16.7352 12.62C16.889 12.7225 17.0302 12.8413 17.1627 12.9688C17.179 12.9825 17.1965 12.9925 17.2115 13.0075L20.6752 16.4713C21.8965 17.6925 21.8965 19.67 20.6752 20.8913C20.1169 21.4509 19.3906 21.7518 18.6259 21.7883C18.3591 21.801 18.1277 22.0068 18.1277 22.2738C18.1277 22.523 18.3299 22.725 18.5791 22.725H21.0915C21.5265 22.725 22.4052 22.665 23.4352 22.2525C25.4965 21.32 26.829 19.25 26.829 16.98C26.829 13.8763 24.8376 11.6169 21.8942 11.2521Z" fill="#F57463"/>
<path fill-rule="evenodd" clip-rule="evenodd" d="M18.4641 19.6192C18.7041 19.6192 18.9441 19.528 19.1266 19.3442C19.4928 18.978 19.4928 18.3855 19.1266 18.0192L15.6628 14.5555C15.5766 14.468 15.4728 14.4005 15.3578 14.353C15.2428 14.3055 15.1216 14.2805 14.9991 14.2805C14.9941 14.2805 14.9903 14.283 14.9853 14.283C14.8678 14.2855 14.7516 14.3067 14.6416 14.353C14.5266 14.4005 14.4216 14.4692 14.3353 14.5567L10.8728 18.0192C10.5066 18.3855 10.5066 18.978 10.8728 19.3442C11.2391 19.7105 11.8328 19.7105 12.1991 19.3442L14.0628 17.4817V23.9605C14.0628 24.4792 14.4828 24.898 15.0003 24.898C15.5178 24.898 15.9378 24.478 15.9378 23.9605V17.4817L17.8016 19.3442C17.9841 19.528 18.2241 19.6192 18.4641 19.6192Z" fill="#F57463"/>
</svg>
