<svg width="40" height="40" viewBox="0 0 40 40" fill="none" xmlns="http://www.w3.org/2000/svg">
<path d="M0 36C6.6275 36 12.0001 30.6274 12.0001 24C12.0001 17.3726 6.6275 12 0 12V20.4C1.98823 20.4 3.60001 22.0117 3.60001 24C3.60001 25.9882 1.98823 27.6 0 27.6V36Z" fill="#F57463"/>
<path d="M40.0002 16.0001C37.9496 15.3505 35.7658 15 33.5001 15C21.6259 15 12 24.626 12 36.5C12 37.6918 12.097 38.861 12.2834 40H25.6422C25.1653 38.9309 24.9002 37.7464 24.9002 36.5C24.9002 31.7504 28.7505 27.9 33.5001 27.9C36.0961 27.9 38.4233 29.0502 40.0002 30.8687V16.0001Z" fill="#F57463"/>
<path d="M2.10938 0C3.10427 8.99989 10.7345 16 19.9997 16C29.2647 16 36.8951 8.99989 37.8899 0H25.0172C24.2225 1.99222 22.2754 3.39998 19.9997 3.39998C17.7239 3.39998 15.7769 1.99222 14.9821 0H2.10938Z" fill="#F57463"/>
</svg>
